<?xml version="1.0" standalone="no"?>
<!DOCTYPE svg PUBLIC "-//W3C//DTD SVG 20010904//EN"
 "http://www.w3.org/TR/2001/REC-SVG-20010904/DTD/svg10.dtd">
<svg version="1.0" xmlns="http://www.w3.org/2000/svg"
 width="70.000000pt" height="50.000000pt" viewBox="0 0 400.000000 217.000000"
 preserveAspectRatio="xMidYMid meet">

<g transform="translate(0.000000,217.000000) scale(0.100000,-0.100000)"
fill="#000000" stroke="none">
<path d="M431 2043 c-108 -53 -130 -207 -42 -294 86 -87 225 -69 286 36 27 46
34 129 14 168 -17 32 -60 77 -91 93 -36 19 -125 17 -167 -3z"/>
<path d="M1011 1926 c-8 -10 -8 -21 -1 -40 13 -36 13 -46 -4 -46 -8 0 -17 -12
-21 -27 -9 -39 -20 -49 -81 -77 -30 -14 -57 -32 -60 -41 -4 -9 7 -46 24 -83
63 -138 102 -278 102 -368 0 -28 4 -35 25 -40 l25 -6 0 -183 0 -183 -57 -6
c-32 -4 -84 -9 -115 -12 -48 -5 -58 -9 -58 -25 0 -19 18 -19 715 -19 694 0
715 1 715 19 0 16 -10 20 -65 25 -36 3 -94 9 -130 12 l-65 6 0 183 0 183 30 6
c17 3 44 9 61 12 41 8 45 24 25 104 -26 108 -21 163 20 255 52 114 51 124 -15
157 -69 36 -78 44 -86 79 -4 16 -13 29 -21 29 -17 0 -18 9 -4 46 13 33 -6 59
-34 48 -18 -7 -18 -32 -1 -76 5 -13 2 -18 -9 -18 -10 0 -19 -11 -22 -30 -8
-35 -15 -42 -85 -78 -30 -15 -55 -34 -57 -43 -2 -9 15 -57 37 -107 47 -103 51
-146 25 -258 -10 -39 -14 -78 -11 -87 3 -8 19 -18 36 -21 17 -3 45 -9 61 -12
l30 -6 0 -183 0 -183 -72 -7 c-98 -9 -208 -9 -295 0 l-73 8 0 183 0 182 30 6
c17 3 44 9 61 12 17 3 33 13 36 21 3 9 -1 48 -11 87 -26 112 -22 155 25 262
23 52 38 101 35 109 -3 9 -30 27 -60 41 -60 28 -70 37 -80 77 -3 15 -13 27
-21 27 -18 0 -19 9 -5 46 13 33 -6 59 -34 48 -18 -7 -18 -16 -1 -71 6 -17 3
-23 -9 -23 -9 0 -18 -12 -22 -27 -10 -40 -20 -49 -80 -77 -30 -14 -57 -32 -60
-41 -4 -9 12 -58 35 -110 47 -106 51 -149 25 -261 -10 -39 -14 -78 -11 -87 3
-8 19 -18 36 -21 17 -3 45 -9 61 -12 l30 -6 0 -183 0 -183 -72 -7 c-93 -9
-203 -9 -295 0 l-73 7 0 183 0 183 30 6 c17 3 44 9 61 12 17 3 33 13 36 21 3
9 -1 48 -11 87 -26 112 -22 155 25 258 22 50 39 98 37 107 -2 9 -27 28 -57 43
-70 36 -77 43 -85 78 -3 19 -12 30 -22 30 -11 0 -14 5 -10 16 17 43 18 67 5
75 -19 12 -25 11 -38 -5z"/>
<path d="M322 1638 c-29 -6 -56 -22 -82 -48 -85 -85 -119 -203 -127 -437 l-6
-163 65 0 65 0 5 148 c4 97 12 171 24 217 l19 70 5 -620 c5 -669 4 -651 60
-680 43 -22 76 -18 112 14 l33 29 3 391 c3 381 3 391 22 391 20 0 20 -9 20
-388 0 -413 -1 -402 50 -436 40 -26 78 -20 116 18 l34 34 1 633 c1 625 1 633
19 578 22 -69 40 -208 40 -316 l0 -83 67 0 66 0 -6 148 c-7 169 -26 272 -66
357 -46 96 -94 136 -181 150 -43 7 -44 7 -28 -11 9 -11 19 -36 23 -56 7 -35 5
-38 -15 -38 -17 0 -21 -4 -15 -17 4 -10 9 -25 12 -33 2 -8 -21 -58 -53 -110
-64 -108 -84 -134 -95 -123 -4 5 -37 57 -73 117 -64 106 -65 109 -50 137 14
28 14 29 -11 29 -23 0 -25 3 -19 28 3 15 15 39 25 55 23 31 18 33 -59 15z"/>
<path d="M437 1644 c-3 -4 -4 -27 -1 -53 8 -64 76 -303 84 -294 16 19 80 265
80 307 l0 46 -78 0 c-43 0 -82 -3 -85 -6z"/>
<path d="M110 938 c0 -49 24 -78 64 -78 41 0 66 26 66 68 0 32 -1 32 -49 32
-27 0 -56 3 -65 6 -13 5 -16 -1 -16 -28z"/>
<path d="M847 963 l-58 -4 6 -32 c10 -43 33 -67 64 -67 34 0 48 10 60 43 15
38 14 67 -1 65 -7 -1 -39 -3 -71 -5z"/>
<path d="M2601 472 c-57 -9 -101 -65 -101 -128 0 -67 62 -134 125 -134 36 0
95 34 95 55 0 21 -10 19 -37 -7 -60 -56 -153 -3 -153 86 0 91 86 138 154 85
33 -26 48 -17 20 11 -23 23 -69 37 -103 32z"/>
<path d="M2772 348 c3 -119 5 -133 21 -136 10 -2 26 -1 35 3 14 5 12 8 -8 18
-24 12 -25 16 -28 130 -1 69 -7 117 -13 117 -6 0 -9 -49 -7 -132z"/>
<path d="M3210 344 c0 -104 3 -135 13 -132 7 3 13 29 15 69 4 76 21 101 66 97
l31 -3 5 -79 c3 -51 10 -81 18 -84 9 -3 12 17 12 77 0 68 -3 84 -20 101 -24
24 -45 25 -82 6 l-28 -15 0 50 c0 37 -4 49 -15 49 -13 0 -15 -22 -15 -136z"/>
<path d="M3422 463 c5 -25 28 -28 28 -4 0 12 -6 21 -16 21 -9 0 -14 -7 -12
-17z"/>
<path d="M1125 348 c-27 -67 -51 -125 -53 -130 -2 -4 3 -8 11 -8 8 0 21 18 30
40 l15 40 62 0 62 0 15 -40 c9 -22 22 -40 30 -40 8 0 13 4 11 8 -86 211 -105
252 -118 252 -10 0 -32 -43 -65 -122z m94 26 c11 -31 21 -58 21 -60 0 -2 -22
-4 -50 -4 -27 0 -50 2 -50 4 0 14 44 116 50 116 4 0 17 -25 29 -56z"/>
<path d="M3090 435 c0 -27 -4 -35 -17 -35 -17 -1 -17 -1 -1 -14 13 -9 18 -31
20 -86 3 -81 15 -98 63 -86 30 8 25 21 -8 21 -20 0 -22 6 -25 73 -3 67 -1 72
18 72 11 0 20 5 20 10 0 6 -9 10 -20 10 -16 0 -20 7 -20 35 0 24 -5 35 -15 35
-10 0 -15 -11 -15 -35z"/>
<path d="M1420 403 c-8 -3 -23 -12 -32 -21 -16 -14 -18 -13 -18 1 0 10 -7 17
-15 17 -12 0 -15 -17 -15 -95 0 -78 3 -95 15 -95 12 0 15 14 15 65 0 68 20
105 55 105 8 0 15 7 15 15 0 8 -1 15 -2 14 -2 0 -10 -3 -18 -6z"/>
<path d="M1528 394 c-16 -8 -28 -10 -28 -4 0 5 -7 10 -15 10 -12 0 -15 -17
-15 -95 0 -78 3 -95 15 -95 12 0 15 14 15 63 0 79 18 109 63 105 l32 -3 5 -79
c3 -51 10 -81 18 -84 9 -3 12 14 12 60 0 80 18 110 63 106 l32 -3 5 -79 c3
-51 10 -81 18 -84 9 -3 12 17 12 77 0 68 -3 84 -20 101 -25 25 -51 25 -83 0
l-26 -21 -21 21 c-24 24 -45 25 -82 4z"/>
<path d="M1843 399 c-18 -5 -33 -14 -33 -20 0 -6 7 -8 16 -5 63 24 104 12 104
-30 0 -22 -3 -25 -23 -20 -29 7 -88 -9 -99 -26 -13 -22 -9 -54 10 -71 23 -21
71 -22 97 -3 17 12 21 12 31 -3 7 -9 14 -14 17 -11 11 12 -9 161 -23 174 -21
20 -59 26 -97 15z m85 -118 c7 -47 -76 -73 -98 -32 -13 25 -13 27 6 46 11 10
29 15 53 13 30 -2 37 -7 39 -27z"/>
<path d="M2090 403 c-8 -3 -23 -12 -32 -21 -16 -14 -18 -13 -18 1 0 10 -7 17
-15 17 -13 0 -15 -15 -13 -92 2 -62 7 -93 16 -96 9 -3 12 14 12 62 0 76 20
106 69 106 36 0 41 -13 41 -101 0 -57 3 -69 16 -69 14 0 16 12 13 86 -3 71 -7
88 -23 100 -20 14 -40 17 -66 7z"/>
<path d="M2893 386 c-37 -31 -48 -67 -33 -112 21 -63 96 -83 148 -39 35 29 45
69 28 110 -17 39 -36 55 -78 61 -27 5 -41 1 -65 -20z m118 -48 c16 -39 3 -77
-34 -98 -24 -13 -30 -13 -54 0 -78 44 -36 167 47 138 17 -5 33 -22 41 -40z"/>
<path d="M3580 403 c-8 -3 -23 -12 -32 -21 -16 -14 -18 -13 -18 1 0 10 -7 17
-15 17 -13 0 -15 -15 -13 -92 2 -62 7 -93 16 -96 9 -3 12 14 12 62 0 76 20
106 69 106 36 0 41 -13 41 -101 0 -57 3 -69 16 -69 14 0 16 12 13 86 -3 71 -7
88 -23 100 -20 14 -40 17 -66 7z"/>
<path d="M3739 381 c-79 -80 18 -219 109 -155 21 14 22 14 22 -10 0 -56 -69
-85 -118 -50 -32 22 -43 7 -13 -17 33 -27 93 -25 128 5 27 23 28 28 31 135 4
97 2 111 -12 111 -9 0 -16 -7 -16 -16 0 -13 -5 -12 -26 5 -37 29 -70 26 -105
-8z m114 -19 c24 -21 23 -86 -3 -112 -45 -45 -110 -10 -110 58 0 70 60 99 113
54z"/>
<path d="M2210 395 c0 -2 18 -45 40 -95 38 -86 39 -92 25 -120 -8 -15 -20 -30
-27 -33 -21 -7 -1 -19 20 -13 12 4 30 33 49 84 17 42 40 101 52 130 15 38 17
52 8 52 -7 0 -26 -36 -42 -79 -16 -44 -32 -78 -35 -76 -3 2 -18 37 -35 79 -16
42 -36 76 -42 76 -7 0 -13 -2 -13 -5z"/>
<path d="M3422 308 c2 -62 7 -93 16 -96 9 -3 12 20 12 92 0 80 -3 96 -15 96
-13 0 -15 -15 -13 -92z"/>
</g>
</svg>
